<?xml version="1.0" encoding="utf-8"?>
<!-- Generator: Adobe Illustrator 19.2.1, SVG Export Plug-In . SVG Version: 6.00 Build 0)  -->
<svg version="1.1" id="Layer_1" xmlns="http://www.w3.org/2000/svg" xmlns:xlink="http://www.w3.org/1999/xlink" x="0px" y="0px"
	 viewBox="0 0 320 435" style="enable-background:new 0 0 320 435;" xml:space="preserve">
<style type="text/css">
	.st0{fill:none;stroke:#7D7D7D;stroke-width:2;stroke-miterlimit:10;}
	.st1{fill:none;stroke:#7D7D7D;stroke-width:2;stroke-miterlimit:10;stroke-dasharray:7.9663,7.9663;}
	.st2{fill:#61D5EE;}
</style>
<g>
	<g>
		<path class="st0" d="M138.4,139.6c0,0-1.2,0.7-3.4,2.2"/>
		<path class="st1" d="M128.5,146.3C96.7,168.7,2,244.5,43.5,325.4c52.7,102.8,158.7,70.3,200.1,33.9c40.3-35.5-3.1-130.6-88.2-81.5
			"/>
		<path class="st0" d="M152,279.9c-1.1,0.7-2.2,1.4-3.4,2.1"/>
	</g>
</g>
<path class="st2" d="M154.5,132.7l10.5,32.9l11.8-7.4l1.5-22.4l43.6-27.2l21,72l14.7-9.2l-0.8-87.5l42.3-26.4
	c6.6-4.1,9.2-11.8,5.1-18.4c-4.1-6.6-12.2-7.6-18.7-3.5l-42.3,26.4L164.8,23l-14.7,9.2l55.5,50.5L162,109.9l-20.8-8.5l-11.8,7.4
	L154.5,132.7z"/>
</svg>
